# xmcd
#
# Track frame offsets:
#	150
#	10386
#	24090
#	36385
#	47782
#	60359
#	71288
#	81689
#	94655
#	105213
#
# Disc length: 1553 seconds
#
# Revision: 0
# Processed by: cddbd v1.5.2PL0 Copyright (c) Steve Scherf et al.
# Submitted via: audiograbber 1.83.01
#
DISCID=73060f0a
DTITLE=Various Artist - All Star Country Western Cavalcade CD6
DYEAR=1969
DGENRE=Country
TTITLE0=Buck Owens - I've Got a Tiger By the Tail
TTITLE1=Glen Campbell - Gentle on My Mind
TTITLE2=Wanda Jackson - This Gun Don't Care
TTITLE3=Ned Miller - Teardrop Lane
TTITLE4=Charlie Louvin - You're the Sad in My Song
TTITLE5=Glen Campbell - Together Again
TTITLE6=Ned Miler - From a Jack to a King
TTITLE7=Merle Haggard - Sing Me Back Home
TTITLE8=Wynn Stewart - If Tomorrow Could Be Yesterday
TTITLE9=Sonny James - Young Love
EXTD=
EXTT0=
EXTT1=
EXTT2=
EXTT3=
EXTT4=
EXTT5=
EXTT6=
EXTT7=
EXTT8=
EXTT9=
PLAYORDER=
